<svg viewBox="0 0 500 500"
    xmlns="http://www.w3.org/2000/svg">
    <style xmlns="http://www.w3.org/2000/svg">
        path {
            fill: #212121;
        }
        @media (prefers-color-scheme: dark) {
            path {
                fill: #FFFFFF;
            }
        }
    </style>
    <path d="M186.379.224c1.194-.039 21.888.556 33.73.828 15.254.346 30.612.521 46.074.521 16.136 0 31.587-.175 46.353-.521 14.772-.35 25.241-.526 31.423-.526 44.123 0 76.971 7.69 98.55 23.076 21.579 15.385 32.366 35.133 32.366 59.261 0 12.234-4.023 24.911-12.075 38.022-8.052 13.111-20.291 24.648-36.718 34.608-16.421 9.964-37.359 16.695-62.802 20.192v1.047c33.177 1.748 59.744 7.344 79.711 16.783 19.968 9.438 34.46 20.888 43.482 34.35C495.489 241.326 500 255.226 500 269.559c0 23.426-5.799 42.654-17.391 57.689-11.598 15.029-28.228 26.133-49.895 33.297-21.672 7.169-47.553 10.754-77.645 10.754-7.728 0-19.057-.263-33.982-.789-14.925-.521-32.903-.784-53.939-.784-16.104 0-31.785.088-47.039.263-15.254.17-27.592.608-37.019 1.31v-10.491c9.981-.696 17.375-2.099 22.171-4.193 4.796-2.099 8.013-6.292 9.657-12.59 1.65-6.292 2.472-15.731 2.472-28.315V55.589c0-12.935-.844-22.461-2.532-28.578-1.683-6.117-4.982-10.316-9.899-12.585-4.325-2.001-10.488-3.256-18.488-3.767-8.009.511-14.208 1.766-18.597 3.767-4.993 2.269-8.293 6.468-9.904 12.585-1.611 6.117-2.417 15.643-2.417 28.578v191.942c0 14.338.082 29.806.241 46.414.159 16.607-.323 32.776-1.447 48.507-1.129 15.736-3.464 29.718-7.005 41.958-7.087 24.122-22.708 44.402-46.863 60.834C76.324 461.676 42.829 469.892 0 469.892v-11.016c11.592-1.749 21.738-5.854 30.431-12.322 8.698-6.468 15.38-17.83 20.05-34.087 4.67-16.257 7.005-39.595 7.005-70.015V55.589c0-12.935-.806-22.461-2.418-28.578-1.606-6.117-4.911-10.316-9.904-12.585-4.988-2.274-12.316-3.584-21.979-3.935V0c8.698.351 20.291.702 34.783 1.052 14.492.346 29.789.521 45.893.521 16.103 0 31.965-.175 47.587-.521 12.293-.276 33.798-.867 34.931-.828ZM315.46 316.848c.051 11.673.889 20.561 2.508 26.656 1.677 6.293 4.747 10.486 9.214 12.585 4.467 2.099 11.028 3.146 19.677 3.146 18.06 0 31.187-7.953 39.387-23.859 8.199-15.912 12.305-38.548 12.305-67.916 0-26.918-5.881-47.724-17.638-62.408-11.752-14.683-31.319-22.023-58.692-22.023h-6.763l.002 133.819Zm13.623-142.739c12.256-.121 21.735-4.055 28.426-11.798 6.796-7.865 11.471-18.356 14.026-31.467 2.548-13.111 3.825-27.18 3.825-42.215 0-25.871-2.62-45.361-7.849-58.472-5.234-13.111-13.889-19.666-25.969-19.666-10.809 0-17.857 2.971-21.151 8.912-3.289 5.947-4.933 18.005-4.933 36.186v118.523h13.039l.586-.003Z"/>
</svg>